<mxfile host="app.diagrams.net" agent="Mozilla/5.0 (Linux; Android 10; K) AppleWebKit/537.36 (KHTML, like Gecko) Chrome/136.0.0.0 Mobile Safari/537.36" version="27.0.6">
  <diagram name="Página-1" id="8LC95lZn0kDKXFwpLl-Z">
    <mxGraphModel grid="1" page="1" gridSize="10" guides="1" tooltips="1" connect="1" arrows="1" fold="1" pageScale="1" pageWidth="827" pageHeight="1169" math="0" shadow="0">
      <root>
        <mxCell id="0" />
        <mxCell id="1" parent="0" />
        <mxCell id="HnynXfFEH7kMS9K4qjND-1" value="Empregado" style="rounded=0;whiteSpace=wrap;html=1;" vertex="1" parent="1">
          <mxGeometry x="40" y="140" width="120" height="60" as="geometry" />
        </mxCell>
        <mxCell id="HnynXfFEH7kMS9K4qjND-2" value="Dependente" style="whiteSpace=wrap;html=1;" vertex="1" parent="1">
          <mxGeometry x="400" y="700" width="120" height="60" as="geometry" />
        </mxCell>
        <mxCell id="HnynXfFEH7kMS9K4qjND-3" value="Administrador" style="whiteSpace=wrap;html=1;" vertex="1" parent="1">
          <mxGeometry x="640" y="140" width="120" height="60" as="geometry" />
        </mxCell>
        <mxCell id="HnynXfFEH7kMS9K4qjND-4" value="Matricula" style="ellipse;whiteSpace=wrap;html=1;" vertex="1" parent="1">
          <mxGeometry x="60" y="210" width="80" height="40" as="geometry" />
        </mxCell>
        <mxCell id="HnynXfFEH7kMS9K4qjND-5" value="Nome" style="ellipse;whiteSpace=wrap;html=1;" vertex="1" parent="1">
          <mxGeometry x="60" y="260" width="80" height="40" as="geometry" />
        </mxCell>
        <mxCell id="HnynXfFEH7kMS9K4qjND-6" value="Sexo" style="ellipse;whiteSpace=wrap;html=1;" vertex="1" parent="1">
          <mxGeometry x="60" y="310" width="80" height="40" as="geometry" />
        </mxCell>
        <mxCell id="J51-uR5fZS4ln4R7rHzA-50" value="" style="edgeStyle=orthogonalEdgeStyle;rounded=0;orthogonalLoop=1;jettySize=auto;html=1;" edge="1" parent="1" source="HnynXfFEH7kMS9K4qjND-7" target="J51-uR5fZS4ln4R7rHzA-49">
          <mxGeometry relative="1" as="geometry" />
        </mxCell>
        <mxCell id="HnynXfFEH7kMS9K4qjND-7" value="Cargo/Função" style="ellipse;whiteSpace=wrap;html=1;" vertex="1" parent="1">
          <mxGeometry x="60" y="360" width="80" height="40" as="geometry" />
        </mxCell>
        <mxCell id="HnynXfFEH7kMS9K4qjND-8" value="" style="endArrow=none;html=1;rounded=0;" edge="1" parent="1">
          <mxGeometry width="50" height="50" relative="1" as="geometry">
            <mxPoint x="20" y="980" as="sourcePoint" />
            <mxPoint x="40" y="170" as="targetPoint" />
            <Array as="points">
              <mxPoint x="20" y="190" />
            </Array>
          </mxGeometry>
        </mxCell>
        <mxCell id="HnynXfFEH7kMS9K4qjND-9" value="" style="endArrow=none;html=1;rounded=0;entryX=0;entryY=0.5;entryDx=0;entryDy=0;" edge="1" parent="1" target="HnynXfFEH7kMS9K4qjND-4">
          <mxGeometry width="50" height="50" relative="1" as="geometry">
            <mxPoint x="20" y="230" as="sourcePoint" />
            <mxPoint x="290" y="250" as="targetPoint" />
          </mxGeometry>
        </mxCell>
        <mxCell id="HnynXfFEH7kMS9K4qjND-10" value="Supervisor/Gerente" style="whiteSpace=wrap;html=1;" vertex="1" parent="1">
          <mxGeometry x="400" y="140" width="120" height="60" as="geometry" />
        </mxCell>
        <mxCell id="HnynXfFEH7kMS9K4qjND-11" value="" style="endArrow=none;html=1;rounded=0;entryX=0;entryY=0.5;entryDx=0;entryDy=0;" edge="1" parent="1">
          <mxGeometry width="50" height="50" relative="1" as="geometry">
            <mxPoint x="20" y="279.71" as="sourcePoint" />
            <mxPoint x="60" y="279.71" as="targetPoint" />
          </mxGeometry>
        </mxCell>
        <mxCell id="HnynXfFEH7kMS9K4qjND-12" value="" style="endArrow=none;html=1;rounded=0;entryX=0;entryY=0.5;entryDx=0;entryDy=0;" edge="1" parent="1">
          <mxGeometry width="50" height="50" relative="1" as="geometry">
            <mxPoint x="20" y="329.71" as="sourcePoint" />
            <mxPoint x="60" y="329.71" as="targetPoint" />
          </mxGeometry>
        </mxCell>
        <mxCell id="HnynXfFEH7kMS9K4qjND-13" value="" style="endArrow=none;html=1;rounded=0;entryX=0;entryY=0.5;entryDx=0;entryDy=0;" edge="1" parent="1">
          <mxGeometry width="50" height="50" relative="1" as="geometry">
            <mxPoint x="20" y="379.71" as="sourcePoint" />
            <mxPoint x="60" y="379.71" as="targetPoint" />
          </mxGeometry>
        </mxCell>
        <mxCell id="J51-uR5fZS4ln4R7rHzA-1" value="Matricula" style="ellipse;whiteSpace=wrap;html=1;" vertex="1" parent="1">
          <mxGeometry x="420" y="210" width="80" height="40" as="geometry" />
        </mxCell>
        <mxCell id="J51-uR5fZS4ln4R7rHzA-2" value="Nome" style="ellipse;whiteSpace=wrap;html=1;" vertex="1" parent="1">
          <mxGeometry x="420" y="260" width="80" height="40" as="geometry" />
        </mxCell>
        <mxCell id="J51-uR5fZS4ln4R7rHzA-3" value="Sexo" style="ellipse;whiteSpace=wrap;html=1;" vertex="1" parent="1">
          <mxGeometry x="420" y="310" width="80" height="40" as="geometry" />
        </mxCell>
        <mxCell id="J51-uR5fZS4ln4R7rHzA-4" value="" style="endArrow=none;html=1;rounded=0;" edge="1" parent="1">
          <mxGeometry width="50" height="50" relative="1" as="geometry">
            <mxPoint x="380" y="380" as="sourcePoint" />
            <mxPoint x="400" y="170" as="targetPoint" />
            <Array as="points">
              <mxPoint x="380" y="190" />
            </Array>
          </mxGeometry>
        </mxCell>
        <mxCell id="J51-uR5fZS4ln4R7rHzA-5" value="" style="endArrow=none;html=1;rounded=0;entryX=0;entryY=0.5;entryDx=0;entryDy=0;" edge="1" parent="1" target="J51-uR5fZS4ln4R7rHzA-1">
          <mxGeometry width="50" height="50" relative="1" as="geometry">
            <mxPoint x="380" y="230" as="sourcePoint" />
            <mxPoint x="650" y="250" as="targetPoint" />
          </mxGeometry>
        </mxCell>
        <mxCell id="J51-uR5fZS4ln4R7rHzA-6" value="" style="endArrow=none;html=1;rounded=0;entryX=0;entryY=0.5;entryDx=0;entryDy=0;" edge="1" parent="1">
          <mxGeometry width="50" height="50" relative="1" as="geometry">
            <mxPoint x="380" y="279.71" as="sourcePoint" />
            <mxPoint x="420" y="279.71" as="targetPoint" />
          </mxGeometry>
        </mxCell>
        <mxCell id="J51-uR5fZS4ln4R7rHzA-7" value="" style="endArrow=none;html=1;rounded=0;entryX=0;entryY=0.5;entryDx=0;entryDy=0;" edge="1" parent="1">
          <mxGeometry width="50" height="50" relative="1" as="geometry">
            <mxPoint x="380" y="329.71" as="sourcePoint" />
            <mxPoint x="420" y="329.71" as="targetPoint" />
          </mxGeometry>
        </mxCell>
        <mxCell id="J51-uR5fZS4ln4R7rHzA-8" value="Matricula" style="ellipse;whiteSpace=wrap;html=1;" vertex="1" parent="1">
          <mxGeometry x="660" y="210" width="80" height="40" as="geometry" />
        </mxCell>
        <mxCell id="J51-uR5fZS4ln4R7rHzA-9" value="Nome" style="ellipse;whiteSpace=wrap;html=1;" vertex="1" parent="1">
          <mxGeometry x="660" y="260" width="80" height="40" as="geometry" />
        </mxCell>
        <mxCell id="J51-uR5fZS4ln4R7rHzA-10" value="Sexo" style="ellipse;whiteSpace=wrap;html=1;" vertex="1" parent="1">
          <mxGeometry x="660" y="310" width="80" height="40" as="geometry" />
        </mxCell>
        <mxCell id="J51-uR5fZS4ln4R7rHzA-11" value="" style="endArrow=none;html=1;rounded=0;" edge="1" parent="1">
          <mxGeometry width="50" height="50" relative="1" as="geometry">
            <mxPoint x="620" y="380" as="sourcePoint" />
            <mxPoint x="640" y="170" as="targetPoint" />
            <Array as="points">
              <mxPoint x="620" y="190" />
            </Array>
          </mxGeometry>
        </mxCell>
        <mxCell id="J51-uR5fZS4ln4R7rHzA-12" value="" style="endArrow=none;html=1;rounded=0;entryX=0;entryY=0.5;entryDx=0;entryDy=0;" edge="1" parent="1" target="J51-uR5fZS4ln4R7rHzA-8">
          <mxGeometry width="50" height="50" relative="1" as="geometry">
            <mxPoint x="620" y="230" as="sourcePoint" />
            <mxPoint x="890" y="250" as="targetPoint" />
          </mxGeometry>
        </mxCell>
        <mxCell id="J51-uR5fZS4ln4R7rHzA-13" value="" style="endArrow=none;html=1;rounded=0;entryX=0;entryY=0.5;entryDx=0;entryDy=0;" edge="1" parent="1">
          <mxGeometry width="50" height="50" relative="1" as="geometry">
            <mxPoint x="620" y="279.71" as="sourcePoint" />
            <mxPoint x="660" y="279.71" as="targetPoint" />
          </mxGeometry>
        </mxCell>
        <mxCell id="J51-uR5fZS4ln4R7rHzA-14" value="" style="endArrow=none;html=1;rounded=0;entryX=0;entryY=0.5;entryDx=0;entryDy=0;" edge="1" parent="1">
          <mxGeometry width="50" height="50" relative="1" as="geometry">
            <mxPoint x="620" y="329.71" as="sourcePoint" />
            <mxPoint x="660" y="329.71" as="targetPoint" />
          </mxGeometry>
        </mxCell>
        <mxCell id="J51-uR5fZS4ln4R7rHzA-15" value="Departamento" style="ellipse;whiteSpace=wrap;html=1;" vertex="1" parent="1">
          <mxGeometry x="420" y="360" width="80" height="40" as="geometry" />
        </mxCell>
        <mxCell id="J51-uR5fZS4ln4R7rHzA-16" value="" style="endArrow=none;html=1;rounded=0;entryX=0;entryY=0.5;entryDx=0;entryDy=0;" edge="1" parent="1">
          <mxGeometry width="50" height="50" relative="1" as="geometry">
            <mxPoint x="380" y="379.71" as="sourcePoint" />
            <mxPoint x="420" y="379.71" as="targetPoint" />
          </mxGeometry>
        </mxCell>
        <mxCell id="J51-uR5fZS4ln4R7rHzA-17" value="" style="ellipse;whiteSpace=wrap;html=1;" vertex="1" parent="1">
          <mxGeometry x="660" y="360" width="80" height="40" as="geometry" />
        </mxCell>
        <mxCell id="J51-uR5fZS4ln4R7rHzA-18" value="" style="endArrow=none;html=1;rounded=0;entryX=0;entryY=0.5;entryDx=0;entryDy=0;" edge="1" parent="1">
          <mxGeometry width="50" height="50" relative="1" as="geometry">
            <mxPoint x="620" y="379.71" as="sourcePoint" />
            <mxPoint x="660" y="379.71" as="targetPoint" />
          </mxGeometry>
        </mxCell>
        <mxCell id="J51-uR5fZS4ln4R7rHzA-19" value="Departamento" style="ellipse;whiteSpace=wrap;html=1;" vertex="1" parent="1">
          <mxGeometry x="60" y="410" width="80" height="40" as="geometry" />
        </mxCell>
        <mxCell id="J51-uR5fZS4ln4R7rHzA-20" value="" style="endArrow=none;html=1;rounded=0;entryX=0;entryY=0.5;entryDx=0;entryDy=0;" edge="1" parent="1">
          <mxGeometry width="50" height="50" relative="1" as="geometry">
            <mxPoint x="20" y="429.71" as="sourcePoint" />
            <mxPoint x="60" y="429.71" as="targetPoint" />
          </mxGeometry>
        </mxCell>
        <mxCell id="J51-uR5fZS4ln4R7rHzA-23" value="CPF" style="ellipse;whiteSpace=wrap;html=1;" vertex="1" parent="1">
          <mxGeometry x="60" y="460" width="80" height="40" as="geometry" />
        </mxCell>
        <mxCell id="J51-uR5fZS4ln4R7rHzA-24" value="Data de Nascimento" style="ellipse;whiteSpace=wrap;html=1;" vertex="1" parent="1">
          <mxGeometry x="60" y="510" width="80" height="40" as="geometry" />
        </mxCell>
        <mxCell id="J51-uR5fZS4ln4R7rHzA-69" value="" style="edgeStyle=orthogonalEdgeStyle;rounded=0;orthogonalLoop=1;jettySize=auto;html=1;" edge="1" parent="1" source="J51-uR5fZS4ln4R7rHzA-25" target="J51-uR5fZS4ln4R7rHzA-67">
          <mxGeometry relative="1" as="geometry" />
        </mxCell>
        <mxCell id="J51-uR5fZS4ln4R7rHzA-25" value="Email" style="ellipse;whiteSpace=wrap;html=1;" vertex="1" parent="1">
          <mxGeometry x="60" y="560" width="80" height="40" as="geometry" />
        </mxCell>
        <mxCell id="J51-uR5fZS4ln4R7rHzA-26" value="Data de Admissão" style="ellipse;whiteSpace=wrap;html=1;" vertex="1" parent="1">
          <mxGeometry x="60" y="610" width="80" height="40" as="geometry" />
        </mxCell>
        <mxCell id="J51-uR5fZS4ln4R7rHzA-27" value="" style="endArrow=none;html=1;rounded=0;entryX=0;entryY=0.5;entryDx=0;entryDy=0;" edge="1" parent="1" target="J51-uR5fZS4ln4R7rHzA-23">
          <mxGeometry width="50" height="50" relative="1" as="geometry">
            <mxPoint x="20" y="480" as="sourcePoint" />
            <mxPoint x="290" y="500" as="targetPoint" />
          </mxGeometry>
        </mxCell>
        <mxCell id="J51-uR5fZS4ln4R7rHzA-28" value="" style="endArrow=none;html=1;rounded=0;entryX=0;entryY=0.5;entryDx=0;entryDy=0;" edge="1" parent="1">
          <mxGeometry width="50" height="50" relative="1" as="geometry">
            <mxPoint x="20" y="529.71" as="sourcePoint" />
            <mxPoint x="60" y="529.71" as="targetPoint" />
          </mxGeometry>
        </mxCell>
        <mxCell id="J51-uR5fZS4ln4R7rHzA-29" value="" style="endArrow=none;html=1;rounded=0;entryX=0;entryY=0.5;entryDx=0;entryDy=0;" edge="1" parent="1">
          <mxGeometry width="50" height="50" relative="1" as="geometry">
            <mxPoint x="20" y="579.71" as="sourcePoint" />
            <mxPoint x="60" y="579.71" as="targetPoint" />
          </mxGeometry>
        </mxCell>
        <mxCell id="J51-uR5fZS4ln4R7rHzA-30" value="" style="endArrow=none;html=1;rounded=0;entryX=0;entryY=0.5;entryDx=0;entryDy=0;" edge="1" parent="1">
          <mxGeometry width="50" height="50" relative="1" as="geometry">
            <mxPoint x="20" y="629.71" as="sourcePoint" />
            <mxPoint x="60" y="629.71" as="targetPoint" />
          </mxGeometry>
        </mxCell>
        <mxCell id="J51-uR5fZS4ln4R7rHzA-70" value="" style="edgeStyle=orthogonalEdgeStyle;rounded=0;orthogonalLoop=1;jettySize=auto;html=1;" edge="1" parent="1" source="J51-uR5fZS4ln4R7rHzA-31" target="J51-uR5fZS4ln4R7rHzA-67">
          <mxGeometry relative="1" as="geometry" />
        </mxCell>
        <mxCell id="J51-uR5fZS4ln4R7rHzA-31" value="Carteira de Trabalho" style="ellipse;whiteSpace=wrap;html=1;" vertex="1" parent="1">
          <mxGeometry x="60" y="660" width="80" height="40" as="geometry" />
        </mxCell>
        <mxCell id="J51-uR5fZS4ln4R7rHzA-32" value="" style="endArrow=none;html=1;rounded=0;entryX=0;entryY=0.5;entryDx=0;entryDy=0;" edge="1" parent="1">
          <mxGeometry width="50" height="50" relative="1" as="geometry">
            <mxPoint x="20" y="679.71" as="sourcePoint" />
            <mxPoint x="60" y="679.71" as="targetPoint" />
          </mxGeometry>
        </mxCell>
        <mxCell id="J51-uR5fZS4ln4R7rHzA-35" value="Salário" style="ellipse;whiteSpace=wrap;html=1;" vertex="1" parent="1">
          <mxGeometry x="60" y="710" width="80" height="40" as="geometry" />
        </mxCell>
        <mxCell id="J51-uR5fZS4ln4R7rHzA-36" value="Dependentes" style="ellipse;whiteSpace=wrap;html=1;" vertex="1" parent="1">
          <mxGeometry x="60" y="760" width="80" height="40" as="geometry" />
        </mxCell>
        <mxCell id="J51-uR5fZS4ln4R7rHzA-37" value="Endereço" style="ellipse;whiteSpace=wrap;html=1;" vertex="1" parent="1">
          <mxGeometry x="60" y="810" width="80" height="40" as="geometry" />
        </mxCell>
        <mxCell id="J51-uR5fZS4ln4R7rHzA-38" value="Telefone" style="ellipse;whiteSpace=wrap;html=1;" vertex="1" parent="1">
          <mxGeometry x="60" y="860" width="80" height="40" as="geometry" />
        </mxCell>
        <mxCell id="J51-uR5fZS4ln4R7rHzA-39" value="" style="endArrow=none;html=1;rounded=0;entryX=0;entryY=0.5;entryDx=0;entryDy=0;" edge="1" parent="1" target="J51-uR5fZS4ln4R7rHzA-35">
          <mxGeometry width="50" height="50" relative="1" as="geometry">
            <mxPoint x="-170" y="840" as="sourcePoint" />
            <mxPoint x="290" y="750" as="targetPoint" />
            <Array as="points">
              <mxPoint x="-150" y="980" />
            </Array>
          </mxGeometry>
        </mxCell>
        <mxCell id="J51-uR5fZS4ln4R7rHzA-40" value="" style="endArrow=none;html=1;rounded=0;entryX=0;entryY=0.5;entryDx=0;entryDy=0;" edge="1" parent="1">
          <mxGeometry width="50" height="50" relative="1" as="geometry">
            <mxPoint x="20" y="779.71" as="sourcePoint" />
            <mxPoint x="60" y="779.71" as="targetPoint" />
          </mxGeometry>
        </mxCell>
        <mxCell id="J51-uR5fZS4ln4R7rHzA-41" value="" style="endArrow=none;html=1;rounded=0;entryX=0;entryY=0.5;entryDx=0;entryDy=0;" edge="1" parent="1">
          <mxGeometry width="50" height="50" relative="1" as="geometry">
            <mxPoint x="20" y="829.71" as="sourcePoint" />
            <mxPoint x="60" y="829.71" as="targetPoint" />
          </mxGeometry>
        </mxCell>
        <mxCell id="J51-uR5fZS4ln4R7rHzA-42" value="" style="endArrow=none;html=1;rounded=0;entryX=0;entryY=0.5;entryDx=0;entryDy=0;" edge="1" parent="1">
          <mxGeometry width="50" height="50" relative="1" as="geometry">
            <mxPoint x="20" y="879.71" as="sourcePoint" />
            <mxPoint x="60" y="879.71" as="targetPoint" />
          </mxGeometry>
        </mxCell>
        <mxCell id="J51-uR5fZS4ln4R7rHzA-43" value="Status" style="ellipse;whiteSpace=wrap;html=1;" vertex="1" parent="1">
          <mxGeometry x="60" y="910" width="80" height="40" as="geometry" />
        </mxCell>
        <mxCell id="J51-uR5fZS4ln4R7rHzA-44" value="" style="endArrow=none;html=1;rounded=0;entryX=0;entryY=0.5;entryDx=0;entryDy=0;" edge="1" parent="1">
          <mxGeometry width="50" height="50" relative="1" as="geometry">
            <mxPoint x="20" y="929.71" as="sourcePoint" />
            <mxPoint x="60" y="929.71" as="targetPoint" />
          </mxGeometry>
        </mxCell>
        <mxCell id="J51-uR5fZS4ln4R7rHzA-45" value="Foto do Perfil" style="ellipse;whiteSpace=wrap;html=1;" vertex="1" parent="1">
          <mxGeometry x="60" y="960" width="80" height="40" as="geometry" />
        </mxCell>
        <mxCell id="J51-uR5fZS4ln4R7rHzA-46" value="" style="endArrow=none;html=1;rounded=0;entryX=0;entryY=0.5;entryDx=0;entryDy=0;" edge="1" parent="1">
          <mxGeometry width="50" height="50" relative="1" as="geometry">
            <mxPoint x="20" y="979.71" as="sourcePoint" />
            <mxPoint x="60" y="979.71" as="targetPoint" />
          </mxGeometry>
        </mxCell>
        <mxCell id="J51-uR5fZS4ln4R7rHzA-49" value="Pode ser entidade" style="ellipse;shape=cloud;whiteSpace=wrap;html=1;" vertex="1" parent="1">
          <mxGeometry x="160" y="350" width="80" height="60" as="geometry" />
        </mxCell>
        <mxCell id="J51-uR5fZS4ln4R7rHzA-54" value="Pode ser entidade" style="ellipse;shape=cloud;whiteSpace=wrap;html=1;" vertex="1" parent="1">
          <mxGeometry x="160" y="400" width="80" height="60" as="geometry" />
        </mxCell>
        <mxCell id="J51-uR5fZS4ln4R7rHzA-57" value="" style="edgeStyle=orthogonalEdgeStyle;rounded=0;orthogonalLoop=1;jettySize=auto;html=1;" edge="1" parent="1">
          <mxGeometry relative="1" as="geometry">
            <mxPoint x="141" y="430" as="sourcePoint" />
            <mxPoint x="160" y="430" as="targetPoint" />
          </mxGeometry>
        </mxCell>
        <mxCell id="J51-uR5fZS4ln4R7rHzA-60" value="Pode ser entidade" style="ellipse;shape=cloud;whiteSpace=wrap;html=1;" vertex="1" parent="1">
          <mxGeometry x="159" y="750" width="80" height="60" as="geometry" />
        </mxCell>
        <mxCell id="J51-uR5fZS4ln4R7rHzA-61" value="" style="edgeStyle=orthogonalEdgeStyle;rounded=0;orthogonalLoop=1;jettySize=auto;html=1;" edge="1" parent="1">
          <mxGeometry relative="1" as="geometry">
            <mxPoint x="140" y="780" as="sourcePoint" />
            <mxPoint x="159" y="780" as="targetPoint" />
          </mxGeometry>
        </mxCell>
        <mxCell id="J51-uR5fZS4ln4R7rHzA-65" value="Pode ser multivalorado" style="ellipse;shape=cloud;whiteSpace=wrap;html=1;" vertex="1" parent="1">
          <mxGeometry x="159" y="850" width="101" height="60" as="geometry" />
        </mxCell>
        <mxCell id="J51-uR5fZS4ln4R7rHzA-66" value="" style="edgeStyle=orthogonalEdgeStyle;rounded=0;orthogonalLoop=1;jettySize=auto;html=1;" edge="1" parent="1">
          <mxGeometry relative="1" as="geometry">
            <mxPoint x="140" y="880" as="sourcePoint" />
            <mxPoint x="159" y="880" as="targetPoint" />
          </mxGeometry>
        </mxCell>
        <mxCell id="J51-uR5fZS4ln4R7rHzA-67" value="Pode ser gerenciada a visualização" style="ellipse;shape=cloud;whiteSpace=wrap;html=1;" vertex="1" parent="1">
          <mxGeometry x="190" y="600" width="190" height="60" as="geometry" />
        </mxCell>
        <mxCell id="J51-uR5fZS4ln4R7rHzA-68" value="" style="edgeStyle=orthogonalEdgeStyle;rounded=0;orthogonalLoop=1;jettySize=auto;html=1;" edge="1" parent="1" target="J51-uR5fZS4ln4R7rHzA-67">
          <mxGeometry relative="1" as="geometry">
            <mxPoint x="140" y="630" as="sourcePoint" />
            <mxPoint x="159" y="630" as="targetPoint" />
            <Array as="points">
              <mxPoint x="170" y="631" />
            </Array>
          </mxGeometry>
        </mxCell>
      </root>
    </mxGraphModel>
  </diagram>
</mxfile>
